<svg xmlns="http://www.w3.org/2000/svg" viewBox="0 0 32 32">
  <g transform="translate(10.29,29.43) scale(0.7796)">
    <path d="M24.84-29.33L24.84-29.33Q24.84-28.86 24.52-28.58Q24.20-28.30 23.73-28.30L23.73-28.30L8.88-28.30L8.88-27.98Q8.88-26.19 8.61-24.17Q8.35-22.15 7.90-20.14Q7.44-18.13 6.87-16.23Q6.30-14.33 5.70-12.71Q5.10-11.10 4.51-9.92Q3.93-8.73 3.46-8.14L3.46-8.14Q3.84-6.80 4.37-5.64Q4.89-4.48 5.55-3.62Q6.21-2.75 6.97-2.26Q7.73-1.76 8.61-1.76L8.61-1.76Q9.64-1.76 10.65-2.62Q11.66-3.49 12.52-4.67Q13.39-5.86 14.05-7.08Q14.71-8.29 15-9.02L15-9.02Q15.29-9.73 16.03-9.73L16.03-9.73Q16.52-9.73 16.83-9.38Q17.14-9.02 17.14-8.61L17.14-8.61Q17.14-8.41 17.05-8.20L17.05-8.20Q16.96-8.00 16.63-7.27Q16.29-6.53 15.75-5.57Q15.21-4.60 14.49-3.53Q13.77-2.46 12.88-1.58Q11.98-0.70 10.96-0.12Q9.93 0.47 8.79 0.47L8.79 0.47Q6.77 0.47 5.16-0.85Q3.54-2.17 2.42-4.54Q1.29-6.91 0.70-10.17Q0.12-13.42 0.12-17.29L0.12-17.29Q0.12-18.25 0.15-19.56Q0.18-20.86 0.26-22.31Q0.35-23.76 0.53-25.30Q0.70-26.84 1.00-28.30L1.00-28.30L-9.52-28.30Q-9.99-28.30-10.31-28.58Q-10.63-28.86-10.63-29.33L-10.63-29.33Q-10.63-29.79-10.31-30.07Q-9.99-30.35-9.52-30.35L-9.52-30.35L1.49-30.35Q1.79-31.41 2.18-32.29Q2.58-33.16 3.09-33.81Q3.60-34.45 4.23-34.82Q4.86-35.19 5.63-35.19L5.63-35.19Q6.36-35.19 6.90-34.82Q7.44-34.45 7.82-33.81Q8.20-33.16 8.42-32.29Q8.64-31.41 8.76-30.35L8.76-30.35L23.73-30.35Q24.20-30.35 24.52-30.07Q24.84-29.79 24.84-29.33ZM2.78-11.07L2.78-11.07Q3.66-13.01 4.38-15.25Q5.10-17.49 5.61-19.78Q6.12-22.06 6.40-24.26Q6.68-26.46 6.68-28.30L6.68-28.30L3.22-28.30Q2.81-26.48 2.56-23.80Q2.31-21.12 2.31-17.29L2.31-17.29Q2.31-15.15 2.43-13.70Q2.55-12.25 2.78-11.07ZM5.51-32.99L5.51-32.99Q5.24-32.99 4.75-32.42Q4.25-31.85 3.75-30.35L3.75-30.35L6.56-30.35Q6.42-31.58 6.14-32.29Q5.86-32.99 5.51-32.99ZM3.25-8.94L3.25-8.96L3.25-8.94ZM20.98-0.85L20.98-0.85Q20.98-0.18 20.52 0.28Q20.07 0.73 19.39 0.73L19.39 0.73Q18.72 0.73 18.27 0.28Q17.81-0.18 17.81-0.85L17.81-0.85Q17.81-1.49 18.27-1.95Q18.72-2.40 19.39-2.40L19.39-2.40Q20.07-2.40 20.52-1.95Q20.98-1.49 20.98-0.85Z" fill="#f0f0f0"/>
  </g>
</svg>